<?xml version="1.0" encoding="UTF-8" standalone="no"?>
<svg width="176px" height="108px" viewBox="0 0 176 108" version="1.1" xmlns="http://www.w3.org/2000/svg" xmlns:xlink="http://www.w3.org/1999/xlink">
    <!-- Generator: Sketch 41.2 (35397) - http://www.bohemiancoding.com/sketch -->
    <title>Group 6</title>
    <desc>Created with Sketch.</desc>
    <defs>
        <rect id="path-1" x="0" y="0" width="40" height="20" rx="4"></rect>
        <mask id="mask-2" maskContentUnits="userSpaceOnUse" maskUnits="objectBoundingBox" x="0" y="0" width="40" height="20" fill="white">
            <use xlink:href="#path-1"></use>
        </mask>
        <path d="M11.9813523,7.75417241 C12.0103295,7.52944828 11.91375,7.29496552 11.7205568,7.17772414 L0.892704545,0.0943793103 C0.718840909,-0.022862069 0.487022727,-0.0326206897 0.303511364,0.0748275862 C0.12,0.182310345 0.00409090909,0.377689655 0.00409090909,0.592655172 L0.00409090909,13.117931 C0.00409090909,13.3426552 0.129647727,13.5380345 0.322840909,13.6455172 C0.516034091,13.7432069 0.7575,13.7236897 0.931363636,13.5868966 L4.00295455,11.2616207 L6.81375,15.7167931 C6.92001136,15.8926552 7.11317045,15.9903448 7.30636364,15.9903448 C7.40294318,15.9903448 7.50920455,15.9610345 7.59613636,15.9121724 L10.4648864,14.2317241 C10.600125,14.1535517 10.6967045,14.0167931 10.7353295,13.8604483 C10.7739545,13.7041379 10.7449773,13.5380345 10.6580455,13.4110345 L8.04044318,9.2392069 L11.5756705,8.23289655 C11.7881591,8.16451724 11.952375,7.97886207 11.9813523,7.75417241 Z" id="path-3"></path>
        <mask id="mask-4" maskContentUnits="userSpaceOnUse" maskUnits="objectBoundingBox" x="0" y="0" width="11.9823225" height="15.9903581" fill="white">
            <use xlink:href="#path-3"></use>
        </mask>
    </defs>
    <g id="Page-1" stroke="none" stroke-width="1" fill="none" fill-rule="evenodd">
        <g id="Desktop-HD" transform="translate(-1190.000000, -649.000000)">
            <g id="Group-6" transform="translate(1190.000000, 649.000000)">
                <g id="Group-8" transform="translate(55.000000, 39.000000)">
                    <text id="Label-|-Dot-View-det" font-family="Roboto-Bold, Roboto" font-size="10" font-weight="bold" fill="#333333">
                        <tspan x="34" y="13">Label | Dot</tspan>
                        <tspan x="81.6318359" y="13" font-family="Roboto-Regular, Roboto" font-weight="normal"></tspan>
                        <tspan x="34" y="24" font-family="Roboto-Regular, Roboto" font-weight="normal">View details</tspan>
                    </text>
                    <g id="Group-2">
                        <text id="Click" font-family="Roboto-Medium, Roboto" font-size="8" font-weight="400" fill="#333333">
                            <tspan x="0.169921875" y="27">Click</tspan>
                        </text>
                        <g id="Devices-&amp;-Network_mouse" transform="translate(3.000000, 0.000000)">
                            <g id="button-mouse">
                                <path d="M6,0 L2.5,0 C1.1192882,0 0,1.1192882 0,2.5 L0,6 L6,6 L6,7.77156117e-16 Z" id="Combined-Shape" fill="#C4C4C4"></path>
                                <path d="M6.0000057,18 L5.99999425,18 C2.68628885,18 0,15.3137111 0,12.0000057 L0,2.5 C0,1.1192882 1.1192882,0 2.5,0 L9.5,0 C10.8807116,0 12,1.1192882 12,2.5 L12,12.0000057 C12,15.3137111 9.31371115,18 6.0000057,18 Z" id="Shape" stroke="#656565" stroke-width="0.75"></path>
                                <path d="M0,6 L12,6" id="Shape" stroke="#656565" stroke-width="0.75"></path>
                                <path d="M6,0 L6,6" id="Shape" stroke="#656565" stroke-width="0.75"></path>
                            </g>
                        </g>
                    </g>
                </g>
                <g id="Group-9" transform="translate(0.000000, 80.000000)">
                    <text id="Label-Enter-filterin" font-family="Roboto-Bold, Roboto" font-size="10" font-weight="bold" fill="#333333">
                        <tspan x="89" y="13">Label</tspan>
                        <tspan x="113.453125" y="13" font-family="Roboto-Regular, Roboto" font-weight="normal"></tspan>
                        <tspan x="89" y="24" font-family="Roboto-Regular, Roboto" font-weight="normal">Enter filtering mode</tspan>
                    </text>
                    <g id="Group-5">
                        <g id="Group-2" transform="translate(55.000000, 0.000000)">
                            <text id="Click" font-family="Roboto-Medium, Roboto" font-size="8" font-weight="400" fill="#333333">
                                <tspan x="0.169921875" y="27">Click</tspan>
                            </text>
                            <g id="Devices-&amp;-Network_mouse" transform="translate(3.000000, 0.000000)">
                                <g id="button-mouse">
                                    <path d="M6,0 L2.5,0 C1.1192882,0 0,1.1192882 0,2.5 L0,6 L6,6 L6,7.77156117e-16 Z" id="Combined-Shape" fill="#C4C4C4"></path>
                                    <path d="M6.0000057,18 L5.99999425,18 C2.68628885,18 0,15.3137111 0,12.0000057 L0,2.5 C0,1.1192882 1.1192882,0 2.5,0 L9.5,0 C10.8807116,0 12,1.1192882 12,2.5 L12,12.0000057 C12,15.3137111 9.31371115,18 6.0000057,18 Z" id="Shape" stroke="#656565" stroke-width="0.75"></path>
                                    <path d="M0,6 L12,6" id="Shape" stroke="#656565" stroke-width="0.75"></path>
                                    <path d="M6,0 L6,6" id="Shape" stroke="#656565" stroke-width="0.75"></path>
                                </g>
                            </g>
                        </g>
                        <text id="+" font-family="Roboto-Regular, Roboto" font-size="12" font-weight="normal" fill="#333333">
                            <tspan x="44.0986328" y="17">+</tspan>
                        </text>
                        <g id="Group" transform="translate(0.000000, 3.000000)">
                            <g id="Group-3">
                                <use id="Rectangle-4" stroke="#979797" mask="url(#mask-2)" stroke-width="2" xlink:href="#path-1"></use>
                                <text id="shift" font-family="Roboto-Medium, Roboto" font-size="10" font-weight="400" fill="#333333">
                                    <tspan x="9.5" y="13.5">shift</tspan>
                                </text>
                            </g>
                        </g>
                    </g>
                </g>
                <g id="Group-7" transform="translate(52.000000, 0.000000)">
                    <text id="Label-|-Dot-View-rel" font-family="Roboto-Bold, Roboto" font-size="10" font-weight="bold" fill="#333333">
                        <tspan x="37" y="12">Label | Dot</tspan>
                        <tspan x="84.6318359" y="12" font-family="Roboto-Regular, Roboto" font-weight="normal"></tspan>
                        <tspan x="37" y="23" font-family="Roboto-Regular, Roboto" font-weight="normal">View relations</tspan>
                    </text>
                    <g id="Group-4">
                        <text id="Hover" font-family="Roboto-Medium, Roboto" font-size="8" font-weight="400" fill="#333333">
                            <tspan x="0" y="25">Hover</tspan>
                        </text>
                        <g id="computer-mouse-cursor" transform="translate(5.000000, 0.000000)" stroke-width="1.33333333" stroke="#656565">
                            <g id="Capa_1">
                                <use id="Shape" mask="url(#mask-4)" xlink:href="#path-3"></use>
                            </g>
                        </g>
                    </g>
                </g>
            </g>
        </g>
    </g>
</svg>